<svg width="334" height="123" viewBox="0 0 334 123" fill="none" xmlns="http://www.w3.org/2000/svg">
<path d="M14.945 48.74C16.0417 48.74 17.15 48.8333 18.27 49.02C19.4133 49.1833 20.3233 49.405 21 49.685C21.21 49.755 21.3383 49.8483 21.385 49.965C21.455 50.0583 21.5017 50.2333 21.525 50.49L21.98 55.355C21.98 55.425 21.9217 55.4717 21.805 55.495C21.6883 55.5183 21.6067 55.4833 21.56 55.39C20.9067 53.4767 19.9733 52.0183 18.76 51.015C17.5467 49.9883 16.0883 49.475 14.385 49.475C12.7983 49.475 11.375 49.9067 10.115 50.77C8.87833 51.61 7.89833 52.8233 7.175 54.41C6.475 55.9967 6.125 57.8517 6.125 59.975C6.125 62.1217 6.48667 64.0117 7.21 65.645C7.95667 67.255 8.97167 68.5033 10.255 69.39C11.5617 70.2533 13.055 70.685 14.735 70.685C16.345 70.685 17.6983 70.2533 18.795 69.39C19.8917 68.5033 20.93 67.0567 21.91 65.05C21.9333 64.98 22.0033 64.9567 22.12 64.98C22.2367 65.0033 22.295 65.05 22.295 65.12L21.77 69.46C21.7233 69.74 21.6767 69.9267 21.63 70.02C21.5833 70.09 21.455 70.1717 21.245 70.265C19.0983 71.035 16.9283 71.42 14.735 71.42C12.2383 71.42 9.99833 70.9533 8.015 70.02C6.055 69.0633 4.515 67.7333 3.395 66.03C2.275 64.3267 1.715 62.39 1.715 60.22C1.715 58.0033 2.28667 56.0317 3.43 54.305C4.59667 52.555 6.18333 51.19 8.19 50.21C10.22 49.23 12.4717 48.74 14.945 48.74ZM42.8282 52.03C42.8282 51.33 42.7582 50.8167 42.6182 50.49C42.4782 50.14 42.2099 49.895 41.8132 49.755C41.4166 49.615 40.7866 49.545 39.9232 49.545C39.8532 49.545 39.8182 49.475 39.8182 49.335C39.8182 49.195 39.8532 49.125 39.9232 49.125L41.6382 49.16C42.8049 49.2067 43.8549 49.23 44.7882 49.23C45.4182 49.23 46.3166 49.2067 47.4832 49.16L49.4432 49.125C49.5132 49.125 49.5482 49.195 49.5482 49.335C49.5482 49.475 49.5132 49.545 49.4432 49.545C48.6499 49.545 48.0549 49.615 47.6582 49.755C47.2849 49.8717 47.0282 50.0933 46.8882 50.42C46.7716 50.7467 46.7132 51.26 46.7132 51.96V68.165C46.7132 68.865 46.7716 69.39 46.8882 69.74C47.0282 70.0667 47.2849 70.2883 47.6582 70.405C48.0316 70.5217 48.6266 70.58 49.4432 70.58C49.5132 70.58 49.5482 70.65 49.5482 70.79C49.5482 70.93 49.5132 71 49.4432 71C48.6266 71 47.9732 70.9883 47.4832 70.965L44.7882 70.93L41.6382 70.965C41.2182 70.9883 40.6466 71 39.9232 71C39.8532 71 39.8182 70.93 39.8182 70.79C39.8182 70.65 39.8532 70.58 39.9232 70.58C40.7866 70.58 41.4166 70.5217 41.8132 70.405C42.2099 70.2883 42.4782 70.0667 42.6182 69.74C42.7582 69.4133 42.8282 68.8883 42.8282 68.165V52.03ZM29.4582 59.135H44.6132V60.115H29.4582V59.135ZM27.6382 51.96C27.6382 51.26 27.5682 50.7467 27.4282 50.42C27.2882 50.0933 27.0316 49.8717 26.6582 49.755C26.3082 49.615 25.7366 49.545 24.9432 49.545C24.8732 49.545 24.8382 49.475 24.8382 49.335C24.8382 49.195 24.8732 49.125 24.9432 49.125L26.8332 49.16C27.9066 49.2067 28.7699 49.23 29.4232 49.23C30.3099 49.23 31.3366 49.2067 32.5032 49.16L34.4282 49.125C34.4749 49.125 34.4982 49.195 34.4982 49.335C34.4982 49.475 34.4749 49.545 34.4282 49.545C33.5882 49.545 32.9699 49.615 32.5732 49.755C32.1766 49.895 31.8966 50.14 31.7332 50.49C31.5932 50.8167 31.5232 51.33 31.5232 52.03V68.165C31.5232 68.865 31.5932 69.39 31.7332 69.74C31.8732 70.0667 32.1416 70.2883 32.5382 70.405C32.9349 70.5217 33.5649 70.58 34.4282 70.58C34.4749 70.58 34.4982 70.65 34.4982 70.79C34.4982 70.93 34.4749 71 34.4282 71C33.6116 71 32.9582 70.9883 32.4682 70.965L29.4232 70.93L26.7982 70.965C26.3316 70.9883 25.6899 71 24.8732 71C24.8266 71 24.8032 70.93 24.8032 70.79C24.8032 70.65 24.8266 70.58 24.8732 70.58C25.6899 70.58 26.2849 70.5217 26.6582 70.405C27.0316 70.2883 27.2882 70.0667 27.4282 69.74C27.5682 69.39 27.6382 68.865 27.6382 68.165V51.96ZM51.9868 71C51.9168 71 51.8818 70.93 51.8818 70.79C51.8818 70.65 51.9168 70.58 51.9868 70.58C52.7334 70.58 53.2701 70.5217 53.5968 70.405C53.9468 70.2883 54.1801 70.0667 54.2968 69.74C54.4134 69.39 54.4718 68.865 54.4718 68.165V51.96C54.4718 51.26 54.4134 50.7467 54.2968 50.42C54.1801 50.0933 53.9468 49.8717 53.5968 49.755C53.2468 49.615 52.7101 49.545 51.9868 49.545C51.9168 49.545 51.8818 49.475 51.8818 49.335C51.8818 49.195 51.9168 49.125 51.9868 49.125H66.8268C67.0601 49.125 67.1768 49.23 67.1768 49.44L67.2468 54.095C67.2468 54.1417 67.1768 54.1767 67.0368 54.2C66.9201 54.2233 66.8501 54.2 66.8268 54.13C66.4534 52.7767 65.8234 51.7733 64.9368 51.12C64.0501 50.4667 62.8834 50.14 61.4368 50.14H60.3868C59.6868 50.14 59.1734 50.2917 58.8468 50.595C58.5201 50.8983 58.3568 51.365 58.3568 51.995V68.025C58.3568 68.7017 58.4851 69.2033 58.7418 69.53C58.9984 69.8567 59.4068 70.02 59.9668 70.02H61.1218C62.9418 70.02 64.4001 69.6467 65.4968 68.9C66.5934 68.1533 67.3984 66.9983 67.9118 65.435C67.9118 65.3883 67.9584 65.365 68.0518 65.365C68.1218 65.365 68.1801 65.3883 68.2268 65.435C68.2968 65.4583 68.3318 65.4817 68.3318 65.505C68.0984 67.325 67.9818 68.9817 67.9818 70.475C67.9818 70.6617 67.9468 70.8017 67.8768 70.895C67.8068 70.965 67.6668 71 67.4568 71H51.9868ZM65.4968 63.195C65.4968 62.2383 65.1234 61.4917 64.3768 60.955C63.6534 60.395 62.6034 60.115 61.2268 60.115H56.5018V59.135H61.2618C62.6151 59.135 63.6534 58.9017 64.3768 58.435C65.1001 57.9683 65.4618 57.315 65.4618 56.475C65.4618 56.405 65.5201 56.37 65.6368 56.37C65.7768 56.37 65.8468 56.405 65.8468 56.475L65.8118 59.625L65.8468 61.305C65.8934 62.0983 65.9168 62.7283 65.9168 63.195C65.9168 63.2417 65.8468 63.265 65.7068 63.265C65.5668 63.265 65.4968 63.2417 65.4968 63.195ZM77.3183 68.025C77.3183 68.6317 77.3649 69.075 77.4583 69.355C77.5516 69.6117 77.7266 69.7867 77.9833 69.88C78.2633 69.9733 78.7066 70.02 79.3133 70.02H80.5033C82.3233 70.02 83.8983 69.5417 85.2283 68.585C86.5583 67.605 87.4449 66.2867 87.8883 64.63C87.8883 64.5833 87.9349 64.56 88.0283 64.56C88.0749 64.56 88.1216 64.5833 88.1683 64.63C88.2383 64.6533 88.2733 64.6767 88.2733 64.7C88.0633 67.01 87.9583 68.935 87.9583 70.475C87.9583 70.6617 87.9116 70.8017 87.8183 70.895C87.7483 70.965 87.6199 71 87.4333 71H70.9133C70.8666 71 70.8433 70.93 70.8433 70.79C70.8433 70.65 70.8666 70.58 70.9133 70.58C71.6599 70.58 72.1966 70.5217 72.5233 70.405C72.8733 70.2883 73.1066 70.0667 73.2233 69.74C73.3633 69.39 73.4333 68.865 73.4333 68.165V51.96C73.4333 51.26 73.3633 50.7467 73.2233 50.42C73.1066 50.0933 72.8733 49.8717 72.5233 49.755C72.1733 49.615 71.6366 49.545 70.9133 49.545C70.8666 49.545 70.8433 49.475 70.8433 49.335C70.8433 49.195 70.8666 49.125 70.9133 49.125L72.6983 49.16C73.7716 49.2067 74.6583 49.23 75.3583 49.23C76.0583 49.23 76.9449 49.2067 78.0183 49.16L79.8033 49.125C79.8733 49.125 79.9083 49.195 79.9083 49.335C79.9083 49.475 79.8733 49.545 79.8033 49.545C79.0799 49.545 78.5433 49.615 78.1933 49.755C77.8433 49.8717 77.6099 50.105 77.4933 50.455C77.3766 50.7817 77.3183 51.295 77.3183 51.995V68.025ZM95.0255 52.66C95.0255 53.5 95.2355 54.2467 95.6555 54.9C96.0989 55.5533 96.6355 56.125 97.2655 56.615C97.8955 57.105 98.7472 57.7 99.8205 58.4C100.987 59.1467 101.921 59.8 102.621 60.36C103.321 60.92 103.916 61.6083 104.406 62.425C104.896 63.2183 105.141 64.14 105.141 65.19C105.141 66.4033 104.814 67.4883 104.161 68.445C103.507 69.3783 102.597 70.1133 101.431 70.65C100.287 71.1633 99.0039 71.42 97.5805 71.42C96.5539 71.42 95.4572 71.28 94.2905 71C93.1472 70.6967 92.3772 70.37 91.9805 70.02C91.8639 69.9267 91.7705 69.845 91.7005 69.775C91.6539 69.6817 91.6305 69.5417 91.6305 69.355L91.5255 63.79V63.755C91.5255 63.6617 91.5839 63.615 91.7005 63.615C91.8172 63.5917 91.8872 63.6267 91.9105 63.72C92.6105 65.1433 93.2172 66.2983 93.7305 67.185C94.2672 68.0717 94.9322 68.8533 95.7255 69.53C96.5422 70.2067 97.4639 70.545 98.4905 70.545C99.4239 70.545 100.194 70.3 100.801 69.81C101.407 69.2967 101.711 68.4333 101.711 67.22C101.711 66.1933 101.477 65.295 101.011 64.525C100.567 63.755 100.019 63.1017 99.3655 62.565C98.7122 62.0283 97.8139 61.3867 96.6705 60.64C95.5505 59.9167 94.6755 59.2983 94.0455 58.785C93.4389 58.2717 92.9139 57.6533 92.4705 56.93C92.0272 56.2067 91.8055 55.355 91.8055 54.375C91.8055 53.1383 92.1555 52.1 92.8555 51.26C93.5789 50.3967 94.5005 49.7667 95.6205 49.37C96.7405 48.95 97.9189 48.74 99.1555 48.74C99.9722 48.74 100.801 48.8217 101.641 48.985C102.481 49.125 103.157 49.3 103.671 49.51C103.881 49.6033 104.021 49.7083 104.091 49.825C104.161 49.9183 104.196 50.0467 104.196 50.21V55.355C104.196 55.425 104.137 55.4833 104.021 55.53C103.904 55.5533 103.834 55.53 103.811 55.46L103.531 54.795C102.947 53.325 102.259 52.0767 101.466 51.05C100.696 50.0233 99.6105 49.51 98.2105 49.51C97.2772 49.51 96.5072 49.7783 95.9005 50.315C95.3172 50.8517 95.0255 51.6333 95.0255 52.66ZM114.893 68.165C114.893 68.8883 114.952 69.4133 115.068 69.74C115.185 70.0667 115.407 70.2883 115.733 70.405C116.083 70.5217 116.632 70.58 117.378 70.58C117.448 70.58 117.483 70.65 117.483 70.79C117.483 70.93 117.448 71 117.378 71C116.608 71 116.002 70.9883 115.558 70.965L112.898 70.93L110.308 70.965C109.842 70.9883 109.212 71 108.418 71C108.372 71 108.348 70.93 108.348 70.79C108.348 70.65 108.372 70.58 108.418 70.58C109.165 70.58 109.713 70.5217 110.063 70.405C110.413 70.2883 110.647 70.0667 110.763 69.74C110.903 69.39 110.973 68.865 110.973 68.165V51.96C110.973 51.26 110.903 50.7467 110.763 50.42C110.647 50.0933 110.413 49.8717 110.063 49.755C109.713 49.615 109.165 49.545 108.418 49.545C108.372 49.545 108.348 49.475 108.348 49.335C108.348 49.195 108.372 49.125 108.418 49.125L110.308 49.16C111.382 49.2067 112.245 49.23 112.898 49.23C113.622 49.23 114.52 49.2067 115.593 49.16L117.378 49.125C117.448 49.125 117.483 49.195 117.483 49.335C117.483 49.475 117.448 49.545 117.378 49.545C116.655 49.545 116.118 49.615 115.768 49.755C115.418 49.895 115.185 50.14 115.068 50.49C114.952 50.8167 114.893 51.33 114.893 52.03V68.165ZM120.346 71C120.276 71 120.241 70.93 120.241 70.79C120.241 70.65 120.276 70.58 120.346 70.58C121.093 70.58 121.629 70.5217 121.956 70.405C122.306 70.2883 122.539 70.0667 122.656 69.74C122.773 69.39 122.831 68.865 122.831 68.165V51.96C122.831 51.26 122.773 50.7467 122.656 50.42C122.539 50.0933 122.306 49.8717 121.956 49.755C121.606 49.615 121.069 49.545 120.346 49.545C120.276 49.545 120.241 49.475 120.241 49.335C120.241 49.195 120.276 49.125 120.346 49.125H135.186C135.419 49.125 135.536 49.23 135.536 49.44L135.606 54.095C135.606 54.1417 135.536 54.1767 135.396 54.2C135.279 54.2233 135.209 54.2 135.186 54.13C134.813 52.7767 134.183 51.7733 133.296 51.12C132.409 50.4667 131.243 50.14 129.796 50.14H128.746C128.046 50.14 127.533 50.2917 127.206 50.595C126.879 50.8983 126.716 51.365 126.716 51.995V68.025C126.716 68.7017 126.844 69.2033 127.101 69.53C127.358 69.8567 127.766 70.02 128.326 70.02H129.481C131.301 70.02 132.759 69.6467 133.856 68.9C134.953 68.1533 135.758 66.9983 136.271 65.435C136.271 65.3883 136.318 65.365 136.411 65.365C136.481 65.365 136.539 65.3883 136.586 65.435C136.656 65.4583 136.691 65.4817 136.691 65.505C136.458 67.325 136.341 68.9817 136.341 70.475C136.341 70.6617 136.306 70.8017 136.236 70.895C136.166 70.965 136.026 71 135.816 71H120.346ZM133.856 63.195C133.856 62.2383 133.483 61.4917 132.736 60.955C132.013 60.395 130.963 60.115 129.586 60.115H124.861V59.135H129.621C130.974 59.135 132.013 58.9017 132.736 58.435C133.459 57.9683 133.821 57.315 133.821 56.475C133.821 56.405 133.879 56.37 133.996 56.37C134.136 56.37 134.206 56.405 134.206 56.475L134.171 59.625L134.206 61.305C134.253 62.0983 134.276 62.7283 134.276 63.195C134.276 63.2417 134.206 63.265 134.066 63.265C133.926 63.265 133.856 63.2417 133.856 63.195ZM157.521 58.645C159.084 58.645 160.461 58.9017 161.651 59.415C162.864 59.9283 163.797 60.64 164.451 61.55C165.104 62.46 165.431 63.4983 165.431 64.665C165.431 65.8783 165.081 66.975 164.381 67.955C163.681 68.935 162.712 69.7167 161.476 70.3C160.239 70.86 158.862 71.14 157.346 71.14C156.692 71.14 155.946 71.105 155.106 71.035C154.779 71.0117 154.371 70.9883 153.881 70.965C153.414 70.9417 152.889 70.93 152.306 70.93L149.751 70.965C149.284 70.9883 148.654 71 147.861 71C147.791 71 147.756 70.93 147.756 70.79C147.756 70.65 147.791 70.58 147.861 70.58C148.537 70.58 149.051 70.5217 149.401 70.405C149.751 70.265 149.996 70.0317 150.136 69.705C150.299 69.355 150.381 68.8417 150.381 68.165V51.96C150.381 50.98 150.217 50.3383 149.891 50.035C149.564 49.7083 148.899 49.545 147.896 49.545C147.849 49.545 147.826 49.475 147.826 49.335C147.826 49.195 147.849 49.125 147.896 49.125L149.751 49.16C150.824 49.2067 151.676 49.23 152.306 49.23C152.959 49.23 153.636 49.195 154.336 49.125C154.569 49.1017 154.919 49.0783 155.386 49.055C155.852 49.0317 156.261 49.02 156.611 49.02C158.734 49.02 160.379 49.405 161.546 50.175C162.712 50.945 163.296 52.065 163.296 53.535C163.296 54.8883 162.759 56.09 161.686 57.14C160.636 58.1667 159.119 58.8783 157.136 59.275L157.521 58.645ZM156.086 49.79C155.409 49.79 154.942 49.9533 154.686 50.28C154.429 50.5833 154.301 51.1667 154.301 52.03V58.89L153.006 58.645C154.032 58.6917 154.931 58.715 155.701 58.715C156.914 58.715 157.847 58.26 158.501 57.35C159.154 56.44 159.481 55.2733 159.481 53.85C159.481 52.52 159.189 51.5167 158.606 50.84C158.022 50.14 157.182 49.79 156.086 49.79ZM156.751 70.265C159.807 70.265 161.336 68.6783 161.336 65.505C161.336 63.7083 160.904 62.285 160.041 61.235C159.177 60.185 157.871 59.66 156.121 59.66C154.977 59.66 153.986 59.73 153.146 59.87L154.301 59.45V68.165C154.301 68.935 154.452 69.4833 154.756 69.81C155.059 70.1133 155.724 70.265 156.751 70.265ZM180.051 71.42C177.881 71.42 175.945 70.9183 174.241 69.915C172.561 68.8883 171.255 67.5117 170.321 65.785C169.411 64.035 168.956 62.1333 168.956 60.08C168.956 57.6767 169.563 55.6233 170.776 53.92C171.99 52.1933 173.541 50.8983 175.431 50.035C177.345 49.1717 179.293 48.74 181.276 48.74C183.493 48.74 185.441 49.265 187.121 50.315C188.801 51.3417 190.085 52.7067 190.971 54.41C191.881 56.1133 192.336 57.9217 192.336 59.835C192.336 61.9583 191.776 63.9067 190.656 65.68C189.536 67.4533 188.031 68.8533 186.141 69.88C184.275 70.9067 182.245 71.42 180.051 71.42ZM181.206 70.545C182.513 70.545 183.68 70.1717 184.706 69.425C185.756 68.655 186.573 67.5467 187.156 66.1C187.74 64.63 188.031 62.88 188.031 60.85C188.031 58.7033 187.705 56.79 187.051 55.11C186.398 53.4067 185.453 52.0767 184.216 51.12C182.98 50.1633 181.533 49.685 179.876 49.685C177.753 49.685 176.12 50.49 174.976 52.1C173.833 53.6867 173.261 55.915 173.261 58.785C173.261 61.0483 173.6 63.0783 174.276 64.875C174.976 66.6483 175.921 68.0367 177.111 69.04C178.325 70.0433 179.69 70.545 181.206 70.545ZM201.493 68.025C201.493 68.6317 201.54 69.075 201.633 69.355C201.726 69.6117 201.901 69.7867 202.158 69.88C202.438 69.9733 202.881 70.02 203.488 70.02H204.678C206.498 70.02 208.073 69.5417 209.403 68.585C210.733 67.605 211.62 66.2867 212.063 64.63C212.063 64.5833 212.11 64.56 212.203 64.56C212.25 64.56 212.296 64.5833 212.343 64.63C212.413 64.6533 212.448 64.6767 212.448 64.7C212.238 67.01 212.133 68.935 212.133 70.475C212.133 70.6617 212.086 70.8017 211.993 70.895C211.923 70.965 211.795 71 211.608 71H195.088C195.041 71 195.018 70.93 195.018 70.79C195.018 70.65 195.041 70.58 195.088 70.58C195.835 70.58 196.371 70.5217 196.698 70.405C197.048 70.2883 197.281 70.0667 197.398 69.74C197.538 69.39 197.608 68.865 197.608 68.165V51.96C197.608 51.26 197.538 50.7467 197.398 50.42C197.281 50.0933 197.048 49.8717 196.698 49.755C196.348 49.615 195.811 49.545 195.088 49.545C195.041 49.545 195.018 49.475 195.018 49.335C195.018 49.195 195.041 49.125 195.088 49.125L196.873 49.16C197.946 49.2067 198.833 49.23 199.533 49.23C200.233 49.23 201.12 49.2067 202.193 49.16L203.978 49.125C204.048 49.125 204.083 49.195 204.083 49.335C204.083 49.475 204.048 49.545 203.978 49.545C203.255 49.545 202.718 49.615 202.368 49.755C202.018 49.8717 201.785 50.105 201.668 50.455C201.551 50.7817 201.493 51.295 201.493 51.995V68.025ZM214.545 71C214.475 71 214.44 70.93 214.44 70.79C214.44 70.65 214.475 70.58 214.545 70.58C215.292 70.58 215.829 70.5217 216.155 70.405C216.505 70.2883 216.739 70.0667 216.855 69.74C216.972 69.39 217.03 68.865 217.03 68.165V51.96C217.03 51.26 216.972 50.7467 216.855 50.42C216.739 50.0933 216.505 49.8717 216.155 49.755C215.805 49.615 215.269 49.545 214.545 49.545C214.475 49.545 214.44 49.475 214.44 49.335C214.44 49.195 214.475 49.125 214.545 49.125H229.385C229.619 49.125 229.735 49.23 229.735 49.44L229.805 54.095C229.805 54.1417 229.735 54.1767 229.595 54.2C229.479 54.2233 229.409 54.2 229.385 54.13C229.012 52.7767 228.382 51.7733 227.495 51.12C226.609 50.4667 225.442 50.14 223.995 50.14H222.945C222.245 50.14 221.732 50.2917 221.405 50.595C221.079 50.8983 220.915 51.365 220.915 51.995V68.025C220.915 68.7017 221.044 69.2033 221.3 69.53C221.557 69.8567 221.965 70.02 222.525 70.02H223.68C225.5 70.02 226.959 69.6467 228.055 68.9C229.152 68.1533 229.957 66.9983 230.47 65.435C230.47 65.3883 230.517 65.365 230.61 65.365C230.68 65.365 230.739 65.3883 230.785 65.435C230.855 65.4583 230.89 65.4817 230.89 65.505C230.657 67.325 230.54 68.9817 230.54 70.475C230.54 70.6617 230.505 70.8017 230.435 70.895C230.365 70.965 230.225 71 230.015 71H214.545ZM228.055 63.195C228.055 62.2383 227.682 61.4917 226.935 60.955C226.212 60.395 225.162 60.115 223.785 60.115H219.06V59.135H223.82C225.174 59.135 226.212 58.9017 226.935 58.435C227.659 57.9683 228.02 57.315 228.02 56.475C228.02 56.405 228.079 56.37 228.195 56.37C228.335 56.37 228.405 56.405 228.405 56.475L228.37 59.625L228.405 61.305C228.452 62.0983 228.475 62.7283 228.475 63.195C228.475 63.2417 228.405 63.265 228.265 63.265C228.125 63.265 228.055 63.2417 228.055 63.195ZM236.867 49.93L237.917 50V66.555C237.917 67.7917 238.174 68.7717 238.687 69.495C239.2 70.2183 239.912 70.58 240.822 70.58C240.869 70.58 240.892 70.65 240.892 70.79C240.892 70.93 240.869 71 240.822 71C240.169 71 239.667 70.9883 239.317 70.965L237.427 70.93L235.257 70.965C234.86 70.9883 234.289 71 233.542 71C233.472 71 233.437 70.93 233.437 70.79C233.437 70.65 233.472 70.58 233.542 70.58C234.569 70.58 235.374 70.2183 235.957 69.495C236.564 68.7717 236.867 67.7917 236.867 66.555V49.93ZM254.717 71.525C254.717 71.595 254.659 71.6417 254.542 71.665C254.449 71.6883 254.379 71.6767 254.332 71.63L237.077 51.995C236.26 51.0617 235.56 50.42 234.977 50.07C234.394 49.72 233.799 49.545 233.192 49.545C233.145 49.545 233.122 49.475 233.122 49.335C233.122 49.195 233.145 49.125 233.192 49.125L234.662 49.16C234.965 49.1833 235.409 49.195 235.992 49.195L238.652 49.16C238.979 49.1367 239.375 49.125 239.842 49.125C240.029 49.125 240.169 49.1717 240.262 49.265C240.355 49.3583 240.519 49.5567 240.752 49.86C241.149 50.3967 241.429 50.7583 241.592 50.945L254.437 65.75L254.717 71.525ZM254.717 71.525L253.702 70.475V53.605C253.702 52.345 253.445 51.3533 252.932 50.63C252.419 49.9067 251.707 49.545 250.797 49.545C250.75 49.545 250.727 49.475 250.727 49.335C250.727 49.195 250.75 49.125 250.797 49.125L252.302 49.16C253.049 49.2067 253.679 49.23 254.192 49.23C254.659 49.23 255.312 49.2067 256.152 49.16L257.727 49.125C257.774 49.125 257.797 49.195 257.797 49.335C257.797 49.475 257.774 49.545 257.727 49.545C256.794 49.545 256.059 49.9183 255.522 50.665C254.985 51.3883 254.717 52.3683 254.717 53.605V71.525ZM269.569 71.14C268.823 71.14 267.936 71.105 266.909 71.035C266.536 71.0117 266.069 70.9883 265.509 70.965C264.973 70.9417 264.366 70.93 263.689 70.93L261.099 70.965C260.633 70.9883 260.003 71 259.209 71C259.163 71 259.139 70.93 259.139 70.79C259.139 70.65 259.163 70.58 259.209 70.58C259.956 70.58 260.504 70.5217 260.854 70.405C261.204 70.2883 261.438 70.0667 261.554 69.74C261.694 69.39 261.764 68.865 261.764 68.165V51.96C261.764 51.26 261.694 50.7467 261.554 50.42C261.438 50.0933 261.204 49.8717 260.854 49.755C260.528 49.615 260.003 49.545 259.279 49.545C259.209 49.545 259.174 49.475 259.174 49.335C259.174 49.195 259.209 49.125 259.279 49.125L261.134 49.16C262.208 49.2067 263.059 49.23 263.689 49.23C264.646 49.23 265.626 49.195 266.629 49.125C267.843 49.0783 268.659 49.055 269.079 49.055C271.436 49.055 273.524 49.5217 275.344 50.455C277.188 51.3883 278.611 52.66 279.614 54.27C280.618 55.88 281.119 57.6883 281.119 59.695C281.119 61.9583 280.594 63.965 279.544 65.715C278.518 67.4417 277.118 68.7833 275.344 69.74C273.594 70.6733 271.669 71.14 269.569 71.14ZM269.219 70.335C270.713 70.335 272.031 69.9617 273.174 69.215C274.318 68.445 275.204 67.3133 275.834 65.82C276.488 64.3267 276.814 62.5417 276.814 60.465C276.814 58.4817 276.511 56.685 275.904 55.075C275.298 53.4417 274.434 52.1583 273.314 51.225C272.194 50.2917 270.899 49.825 269.429 49.825C267.983 49.825 266.991 49.965 266.454 50.245C265.918 50.525 265.649 51.12 265.649 52.03V67.78C265.649 68.7133 265.894 69.3783 266.384 69.775C266.874 70.1483 267.819 70.335 269.219 70.335ZM284.272 71C284.202 71 284.167 70.93 284.167 70.79C284.167 70.65 284.202 70.58 284.272 70.58C285.019 70.58 285.555 70.5217 285.882 70.405C286.232 70.2883 286.465 70.0667 286.582 69.74C286.699 69.39 286.757 68.865 286.757 68.165V51.96C286.757 51.26 286.699 50.7467 286.582 50.42C286.465 50.0933 286.232 49.8717 285.882 49.755C285.532 49.615 284.995 49.545 284.272 49.545C284.202 49.545 284.167 49.475 284.167 49.335C284.167 49.195 284.202 49.125 284.272 49.125H299.112C299.345 49.125 299.462 49.23 299.462 49.44L299.532 54.095C299.532 54.1417 299.462 54.1767 299.322 54.2C299.205 54.2233 299.135 54.2 299.112 54.13C298.739 52.7767 298.109 51.7733 297.222 51.12C296.335 50.4667 295.169 50.14 293.722 50.14H292.672C291.972 50.14 291.459 50.2917 291.132 50.595C290.805 50.8983 290.642 51.365 290.642 51.995V68.025C290.642 68.7017 290.77 69.2033 291.027 69.53C291.284 69.8567 291.692 70.02 292.252 70.02H293.407C295.227 70.02 296.685 69.6467 297.782 68.9C298.879 68.1533 299.684 66.9983 300.197 65.435C300.197 65.3883 300.244 65.365 300.337 65.365C300.407 65.365 300.465 65.3883 300.512 65.435C300.582 65.4583 300.617 65.4817 300.617 65.505C300.384 67.325 300.267 68.9817 300.267 70.475C300.267 70.6617 300.232 70.8017 300.162 70.895C300.092 70.965 299.952 71 299.742 71H284.272ZM297.782 63.195C297.782 62.2383 297.409 61.4917 296.662 60.955C295.939 60.395 294.889 60.115 293.512 60.115H288.787V59.135H293.547C294.9 59.135 295.939 58.9017 296.662 58.435C297.385 57.9683 297.747 57.315 297.747 56.475C297.747 56.405 297.805 56.37 297.922 56.37C298.062 56.37 298.132 56.405 298.132 56.475L298.097 59.625L298.132 61.305C298.179 62.0983 298.202 62.7283 298.202 63.195C298.202 63.2417 298.132 63.265 297.992 63.265C297.852 63.265 297.782 63.2417 297.782 63.195ZM320.698 71C320.162 71 319.17 70.0317 317.723 68.095C316.277 66.135 314.527 63.4167 312.473 59.94L315.693 58.96C317.63 61.9 319.24 64.1983 320.523 65.855C321.83 67.5117 322.985 68.7133 323.988 69.46C324.992 70.2067 325.972 70.58 326.928 70.58C326.975 70.58 326.998 70.65 326.998 70.79C326.998 70.93 326.975 71 326.928 71H320.698ZM313.173 49.02C315.297 49.02 316.942 49.4167 318.108 50.21C319.275 50.98 319.858 52.065 319.858 53.465C319.858 54.795 319.473 55.9967 318.703 57.07C317.957 58.1433 316.977 58.9833 315.763 59.59C314.55 60.1733 313.278 60.465 311.948 60.465C311.038 60.465 310.397 60.4533 310.023 60.43V68.165C310.023 68.8883 310.082 69.4133 310.198 69.74C310.315 70.0667 310.537 70.2883 310.863 70.405C311.213 70.5217 311.762 70.58 312.508 70.58C312.555 70.58 312.578 70.65 312.578 70.79C312.578 70.93 312.555 71 312.508 71C311.738 71 311.132 70.9883 310.688 70.965L308.028 70.93L305.473 70.965C305.007 70.9883 304.377 71 303.583 71C303.513 71 303.478 70.93 303.478 70.79C303.478 70.65 303.513 70.58 303.583 70.58C304.33 70.58 304.867 70.5217 305.193 70.405C305.543 70.2883 305.777 70.0667 305.893 69.74C306.033 69.39 306.103 68.865 306.103 68.165V51.96C306.103 51.26 306.045 50.7467 305.928 50.42C305.812 50.0933 305.578 49.8717 305.228 49.755C304.878 49.615 304.342 49.545 303.618 49.545C303.572 49.545 303.548 49.475 303.548 49.335C303.548 49.195 303.572 49.125 303.618 49.125L305.473 49.16C306.547 49.2067 307.398 49.23 308.028 49.23C308.822 49.23 309.65 49.195 310.513 49.125C310.817 49.1017 311.19 49.0783 311.633 49.055C312.1 49.0317 312.613 49.02 313.173 49.02ZM315.868 54.795C315.868 52.8817 315.588 51.5633 315.028 50.84C314.468 50.1167 313.663 49.755 312.613 49.755C311.68 49.755 311.015 49.93 310.618 50.28C310.222 50.63 310.023 51.2133 310.023 52.03V59.45C310.583 59.5433 311.26 59.59 312.053 59.59C313.407 59.59 314.375 59.2167 314.958 58.47C315.565 57.7 315.868 56.475 315.868 54.795Z" fill="#1D1E2C"/>
<path d="M13 33V1H315V33" stroke="#777195"/>
<path d="M13 87V122H315V87" stroke="#777195"/>
</svg>
